<svg xmlns="http://www.w3.org/2000/svg" viewBox="0 0 1708 668"><defs><style>.cls-1{fill:#025f93;}</style></defs><title>Asset 3</title><g id="Layer_2" data-name="Layer 2"><g id="Layer_1-2" data-name="Layer 1"><path class="cls-1" d="M0,0ZM0,0ZM0,0ZM0,0ZM0,0ZM0,0ZM0,0ZM0,0ZM0,0ZM0,0ZM0,0ZM0,0ZM0,0ZM0,0ZM0,0ZM0,0ZM0,0ZM0,0ZM0,0ZM0,0ZM0,0ZM0,0ZM0,0ZM0,0ZM0,0ZM0,0ZM0,0ZM0,0ZM0,0ZM0,0ZM0,0ZM0,0ZM0,0ZM0,0ZM0,0ZM0,0ZM0,0ZM0,0ZM0,0ZM0,0ZM0,0ZM0,0ZM0,0ZM0,0ZM0,0ZM0,0ZM0,0ZM0,0ZM0,0ZM0,0ZM0,0ZM0,0ZM0,0ZM0,0ZM0,0ZM0,0ZM0,0ZM0,0ZM0,0ZM0,0ZM0,0ZM0,0ZM0,0ZM0,0ZM0,0ZM0,0ZM0,0ZM0,0ZM0,0ZM0,0ZM0,0ZM0,0ZM0,0ZM0,0ZM0,0ZM0,0ZM0,0ZM0,0ZM0,0ZM0,0ZM0,0ZM0,0ZM0,0ZM0,0ZM0,0ZM0,0ZM0,0ZM0,0ZM0,0ZM0,0ZM0,0ZM0,0ZM0,0ZM0,0ZM0,0ZM0,0ZM0,0ZM0,0ZM0,0ZM0,0ZM0,0ZM0,0ZM0,0ZM0,0ZM0,0ZM0,0ZM0,0ZM0,0ZM0,0ZM0,0ZM0,0ZM0,0ZM0,0ZM0,0ZM0,0ZM0,0ZM0,0ZM0,0ZM0,0ZM0,0ZM0,0ZM0,0ZM0,0ZM0,0ZM0,0ZM0,0ZM0,0ZM0,0ZM0,0ZM0,0ZM0,0ZM0,0ZM0,0ZM0,0ZM0,0ZM0,0ZM0,0ZM0,0ZM0,0ZM0,0ZM0,0ZM0,0ZM0,0ZM0,0ZM0,0ZM0,0ZM0,0ZM0,0ZM0,0ZM0,0ZM0,0ZM0,0ZM0,0ZM0,0ZM0,0ZM0,0ZM0,0ZM0,0ZM0,0ZM0,0ZM0,0ZM0,0ZM0,0ZM0,0ZM0,0ZM0,0ZM0,0ZM0,0ZM0,0ZM0,0ZM0,0ZM0,0ZM0,0ZM0,0ZM0,0ZM0,0ZM0,0ZM0,0ZM0,0ZM0,0ZM0,0ZM0,0ZM0,0ZM0,0ZM0,0ZM0,0ZM0,0ZM0,0ZM0,0ZM0,0ZM0,0ZM0,0ZM0,0ZM0,0ZM0,0ZM0,0ZM0,0ZM0,0ZM0,0ZM0,0ZM0,0ZM0,0ZM0,0ZM0,0ZM0,0ZM0,0ZM0,0ZM0,0ZM0,0ZM0,0ZM0,0ZM0,0ZM0,0ZM0,0ZM0,0ZM0,0ZM0,0ZM0,0ZM0,0ZM0,0ZM0,0ZM0,0ZM0,0ZM0,0ZM0,0ZM0,0ZM0,0ZM0,0ZM0,0ZM0,0ZM0,0ZM0,0ZM0,0ZM0,0Z"/><path class="cls-1" d="M0,0Z"/><path class="cls-1" d="M0,0ZM0,0Z"/><path class="cls-1" d="M0,0Z"/><path class="cls-1" d="M0,0Z"/><path class="cls-1" d="M0,0Z"/><path class="cls-1" d="M0,0Z"/><path class="cls-1" d="M0,0Z"/><path class="cls-1" d="M0,0Z"/></g></g></svg>